<svg xmlns="http://www.w3.org/2000/svg" width="143" height="30.144"><defs><clipPath id="a"><path data-name="長方形 242" fill="none" d="M0 0h38.365v30.144H0z"/></clipPath></defs><g data-name="グループ 116"><g data-name="グループ 94"><g data-name="グループ 93" clip-path="url(#a)"><path data-name="パス 271" d="m19.237 11.747-4.013 8.779h8.367Z" fill="#fff" fill-rule="evenodd"/><path data-name="パス 272" d="M18.987 0 8.538 22.86h-2.2L16.946 1.002 14.082.985.001 30.011l2.879-.031 2.2-4.531h26.528L18.987 0Zm.093 6 8.361 16.86H11.374Z" fill="#303030" fill-rule="evenodd"/><path data-name="パス 273" d="m21.47 1.098 14 28.883 2.9.015L24.27.986Z" fill="#fff" fill-rule="evenodd"/><path data-name="長方形 241" fill="#303030" d="M6.773 27.555h25.153v2.589H6.773z"/></g></g><g data-name="グループ 112"><g data-name="グループ 95"><path data-name="パス 274" d="m55.513 15.688-.517-1.768c-.026-.053-.059-.079-.1-.079h-4.527c-.04 0-.073.027-.1.079l-.516 1.768a.262.262 0 0 1-.278.2h-3.039a.221.221 0 0 1-.179-.069.217.217 0 0 1-.02-.209l4.25-13.428a.25.25 0 0 1 .258-.2h3.754a.249.249 0 0 1 .258.2l4.271 13.427a.222.222 0 0 1 .02.1c0 .12-.073.179-.218.179h-3.043a.262.262 0 0 1-.274-.2Zm-4.37-4.39h2.96c.079 0 .106-.039.079-.119l-1.509-5.1q-.02-.079-.06-.07a.094.094 0 0 0-.06.07l-1.49 5.1c-.012.08.014.119.08.119Z" fill="#303030"/></g><g data-name="グループ 96"><path data-name="パス 275" d="M65.795 11.467a.231.231 0 0 1-.07-.169V8.954a.231.231 0 0 1 .07-.169.231.231 0 0 1 .169-.069h6.753a.233.233 0 0 1 .169.069.231.231 0 0 1 .07.169v2.344a.231.231 0 0 1-.07.169.233.233 0 0 1-.169.069h-6.753a.231.231 0 0 1-.169-.069Z" fill="#303030"/></g><g data-name="グループ 97"><path data-name="パス 276" d="M90.34 2.052a.232.232 0 0 1 .069.169v2.363a.231.231 0 0 1-.069.169.229.229 0 0 1-.169.069h-3.476a.088.088 0 0 0-.1.1v10.726a.23.23 0 0 1-.07.169.227.227 0 0 1-.169.069h-2.82a.228.228 0 0 1-.169-.069.229.229 0 0 1-.069-.169V4.922a.088.088 0 0 0-.1-.1h-3.356a.228.228 0 0 1-.169-.069.231.231 0 0 1-.069-.169V2.221a.232.232 0 0 1 .069-.169.231.231 0 0 1 .169-.069H90.17a.232.232 0 0 1 .17.069Z" fill="#303030"/></g><g data-name="グループ 98"><path data-name="パス 277" d="M107.34 4.736a.229.229 0 0 1-.169.069h-6.236a.088.088 0 0 0-.1.1v2.443a.088.088 0 0 0 .1.1h3.992a.228.228 0 0 1 .169.07.229.229 0 0 1 .07.169v2.324a.229.229 0 0 1-.07.169.229.229 0 0 1-.169.07h-3.992a.088.088 0 0 0-.1.1v2.622a.088.088 0 0 0 .1.1h6.236a.231.231 0 0 1 .169.069.231.231 0 0 1 .07.169v2.344a.23.23 0 0 1-.07.169.228.228 0 0 1-.169.069h-9.395a.226.226 0 0 1-.169-.069.228.228 0 0 1-.07-.169V2.222a.231.231 0 0 1 .07-.169.229.229 0 0 1 .169-.069h9.395a.231.231 0 0 1 .169.069.232.232 0 0 1 .07.169v2.344a.23.23 0 0 1-.07.17Z" fill="#303030"/></g><g data-name="グループ 99"><path data-name="パス 278" d="M117.012 15.43a4.489 4.489 0 0 1-1.864-1.748 5.076 5.076 0 0 1-.665-2.622V6.769a4.985 4.985 0 0 1 .665-2.591 4.5 4.5 0 0 1 1.867-1.738 6.037 6.037 0 0 1 2.79-.616 6.3 6.3 0 0 1 2.791.586 4.444 4.444 0 0 1 1.867 1.649 4.522 4.522 0 0 1 .666 2.452.2.2 0 0 1-.07.159.252.252 0 0 1-.169.06l-2.82.179q-.239 0-.239-.219a2.015 2.015 0 0 0-.555-1.49 1.989 1.989 0 0 0-1.47-.556 1.968 1.968 0 0 0-1.47.566 2.021 2.021 0 0 0-.556 1.48v4.508a1.986 1.986 0 0 0 .556 1.47 1.987 1.987 0 0 0 1.47.556 1.989 1.989 0 0 0 1.47-.556 1.987 1.987 0 0 0 .555-1.47c0-.145.079-.218.239-.218l2.82.139a.252.252 0 0 1 .169.06.179.179 0 0 1 .07.139 4.609 4.609 0 0 1-.666 2.483 4.42 4.42 0 0 1-1.867 1.658 6.288 6.288 0 0 1-2.791.586 6.037 6.037 0 0 1-2.793-.615Z" fill="#303030"/></g><g data-name="グループ 100"><path data-name="パス 279" d="M139.772 2.052a.229.229 0 0 1 .169-.069h2.82a.231.231 0 0 1 .169.069.231.231 0 0 1 .07.169v13.427a.228.228 0 0 1-.07.169.227.227 0 0 1-.169.069h-2.824a.226.226 0 0 1-.169-.069.228.228 0 0 1-.07-.169v-5.284a.088.088 0 0 0-.1-.1h-3.714a.088.088 0 0 0-.1.1v5.284a.23.23 0 0 1-.07.169.228.228 0 0 1-.169.069h-2.82a.226.226 0 0 1-.169-.069.229.229 0 0 1-.07-.169V2.222a.231.231 0 0 1 .07-.169.229.229 0 0 1 .169-.069h2.82a.232.232 0 0 1 .169.069.232.232 0 0 1 .07.169v5.124a.087.087 0 0 0 .1.1h3.714a.088.088 0 0 0 .1-.1V2.222a.231.231 0 0 1 .074-.17Z" fill="#303030"/></g><g data-name="グループ 101"><path data-name="パス 280" d="M56.19 22.885a1.878 1.878 0 0 1 .764.755 2.268 2.268 0 0 1 .271 1.119 2.1 2.1 0 0 1-.281 1.094 1.915 1.915 0 0 1-.789.735 2.517 2.517 0 0 1-1.168.261h-1.404a.044.044 0 0 0-.049.049v2.514a.117.117 0 0 1-.034.084.116.116 0 0 1-.084.034h-1.15a.114.114 0 0 1-.083-.034.114.114 0 0 1-.035-.084v-6.674a.113.113 0 0 1 .035-.084.114.114 0 0 1 .083-.034h2.78a2.37 2.37 0 0 1 1.144.265Zm-.621 2.588a.9.9 0 0 0 .276-.685.929.929 0 0 0-.276-.7 1.008 1.008 0 0 0-.73-.266h-1.256a.043.043 0 0 0-.049.049v1.814a.044.044 0 0 0 .049.049h1.252a1.019 1.019 0 0 0 .734-.261Z" fill="#fff"/></g><g data-name="グループ 102"><path data-name="パス 281" d="m63.788 29.442-1.233-2.732a.064.064 0 0 0-.059-.039h-.917a.044.044 0 0 0-.049.049v2.692a.115.115 0 0 1-.034.084.115.115 0 0 1-.084.034h-1.15a.114.114 0 0 1-.084-.034.114.114 0 0 1-.034-.084v-6.665a.114.114 0 0 1 .034-.084.116.116 0 0 1 .084-.034h2.819a2.315 2.315 0 0 1 1.109.256 1.793 1.793 0 0 1 .739.73 2.225 2.225 0 0 1 .262 1.094 1.95 1.95 0 0 1-.335 1.149 1.782 1.782 0 0 1-.937.675.047.047 0 0 0-.03.069l1.341 2.79a.148.148 0 0 1 .019.059c0 .053-.036.079-.108.079h-1.215a.139.139 0 0 1-.138-.088Zm-2.258-5.571v1.686a.043.043 0 0 0 .049.049h1.291a.944.944 0 0 0 .675-.246.841.841 0 0 0 .261-.641.858.858 0 0 0-.261-.646.932.932 0 0 0-.675-.251h-1.291a.043.043 0 0 0-.049.049Z" fill="#fff"/></g><g data-name="グループ 103"><path data-name="パス 282" d="M69.35 29.323a2.266 2.266 0 0 1-.912-.882 2.579 2.579 0 0 1-.325-1.306v-2.11a2.535 2.535 0 0 1 .325-1.291 2.247 2.247 0 0 1 .912-.872 2.852 2.852 0 0 1 1.356-.311 2.872 2.872 0 0 1 1.365.311 2.241 2.241 0 0 1 .912.872 2.531 2.531 0 0 1 .326 1.291v2.11a2.6 2.6 0 0 1-.326 1.311 2.225 2.225 0 0 1-.912.882 2.877 2.877 0 0 1-1.365.31 2.818 2.818 0 0 1-1.356-.315Zm2.234-1.223a1.259 1.259 0 0 0 .335-.917v-2.169a1.29 1.29 0 0 0-.33-.922 1.156 1.156 0 0 0-.882-.35 1.145 1.145 0 0 0-.873.35 1.29 1.29 0 0 0-.33.922v2.169a1.27 1.27 0 0 0 .33.917 1.151 1.151 0 0 0 .873.345 1.168 1.168 0 0 0 .876-.345Z" fill="#fff"/></g><g data-name="グループ 104"><path data-name="パス 283" d="M77.514 29.303a2.211 2.211 0 0 1-.9-.853 2.457 2.457 0 0 1-.32-1.267v-2.208a2.485 2.485 0 0 1 .32-1.272 2.171 2.171 0 0 1 .9-.853 2.881 2.881 0 0 1 1.341-.3 2.859 2.859 0 0 1 1.326.3 2.245 2.245 0 0 1 .9.8 2.077 2.077 0 0 1 .32 1.129v.069a.114.114 0 0 1-.035.084.114.114 0 0 1-.083.034H80.13a.113.113 0 0 1-.084-.034.114.114 0 0 1-.035-.084v-.03a1.029 1.029 0 0 0-.315-.764 1.144 1.144 0 0 0-.838-.311 1.136 1.136 0 0 0-.853.33 1.188 1.188 0 0 0-.32.863v2.287a1.138 1.138 0 0 0 .345.863 1.216 1.216 0 0 0 .878.33 1.19 1.19 0 0 0 .818-.271.957.957 0 0 0 .305-.754v-.444a.044.044 0 0 0-.049-.049h-1.1a.114.114 0 0 1-.084-.034.113.113 0 0 1-.034-.084v-.907a.112.112 0 0 1 .034-.084.112.112 0 0 1 .084-.034h2.406a.112.112 0 0 1 .083.034.113.113 0 0 1 .035.084v1.3a2.576 2.576 0 0 1-.315 1.3 2.087 2.087 0 0 1-.892.843 2.926 2.926 0 0 1-1.336.291 2.84 2.84 0 0 1-1.349-.304Z" fill="#fff"/></g><g data-name="グループ 105"><path data-name="パス 284" d="m88.118 29.442-1.233-2.732a.064.064 0 0 0-.059-.039h-.917a.044.044 0 0 0-.049.049v2.692a.115.115 0 0 1-.034.084.115.115 0 0 1-.084.034h-1.153a.114.114 0 0 1-.084-.034.114.114 0 0 1-.034-.084v-6.665a.114.114 0 0 1 .034-.084.116.116 0 0 1 .084-.034h2.819a2.315 2.315 0 0 1 1.109.256 1.793 1.793 0 0 1 .739.73 2.225 2.225 0 0 1 .262 1.094 1.95 1.95 0 0 1-.335 1.149 1.78 1.78 0 0 1-.937.675.047.047 0 0 0-.03.069l1.341 2.79a.151.151 0 0 1 .02.059c0 .053-.036.079-.109.079h-1.213a.139.139 0 0 1-.137-.088Zm-2.258-5.571v1.686a.043.043 0 0 0 .049.049H87.2a.943.943 0 0 0 .675-.246.841.841 0 0 0 .261-.641.858.858 0 0 0-.261-.646.932.932 0 0 0-.675-.251h-1.291a.043.043 0 0 0-.049.049Z" fill="#fff"/></g><g data-name="グループ 106"><path data-name="パス 285" d="m96.839 29.431-.3-.966c-.013-.026-.03-.039-.049-.039h-2.425c-.02 0-.036.013-.049.039l-.285.966a.124.124 0 0 1-.128.1h-1.252a.111.111 0 0 1-.089-.034.109.109 0 0 1-.01-.1l2.129-6.664a.124.124 0 0 1 .128-.1h1.547a.123.123 0 0 1 .128.1l2.13 6.664a.111.111 0 0 1 .01.049c0 .059-.036.089-.109.089h-1.252a.124.124 0 0 1-.124-.104Zm-2.425-2.08h1.735c.039 0 .053-.019.039-.059l-.887-2.928c-.007-.026-.017-.038-.03-.034a.046.046 0 0 0-.03.034l-.866 2.926c-.007.042.006.061.039.061Z" fill="#fff"/></g><g data-name="グループ 107"><path data-name="パス 286" d="M105.827 22.629h1.153a.115.115 0 0 1 .084.034.114.114 0 0 1 .035.084v6.665a.114.114 0 0 1-.035.084.113.113 0 0 1-.084.034h-1.153a.113.113 0 0 1-.084-.034.114.114 0 0 1-.034-.084v-4.347c0-.027-.007-.04-.02-.04s-.026.01-.039.03l-1.046 1.635a.153.153 0 0 1-.137.079h-.582a.153.153 0 0 1-.138-.079l-1.05-1.636c-.013-.02-.026-.028-.039-.025s-.019.018-.019.044v4.338a.117.117 0 0 1-.034.084.115.115 0 0 1-.084.034h-1.154a.115.115 0 0 1-.084-.034.115.115 0 0 1-.034-.084v-6.665a.115.115 0 0 1 .034-.084.117.117 0 0 1 .084-.034h1.154a.154.154 0 0 1 .138.079l1.479 2.3c.02.04.039.04.059 0l1.488-2.3a.155.155 0 0 1 .142-.078Z" fill="#fff"/></g><g data-name="グループ 108"><path data-name="パス 287" d="M114.892 22.629h1.153a.116.116 0 0 1 .084.034.114.114 0 0 1 .035.084v6.665a.114.114 0 0 1-.035.084.115.115 0 0 1-.084.034h-1.153a.115.115 0 0 1-.084-.034.114.114 0 0 1-.034-.084v-4.347c0-.027-.007-.04-.02-.04s-.026.01-.039.03l-1.045 1.635a.153.153 0 0 1-.138.079h-.582a.154.154 0 0 1-.134-.079l-1.045-1.637c-.013-.02-.026-.028-.04-.025s-.019.018-.019.044v4.338a.115.115 0 0 1-.034.084.114.114 0 0 1-.084.034h-1.158a.115.115 0 0 1-.084-.034.117.117 0 0 1-.034-.084v-6.665a.117.117 0 0 1 .034-.084.117.117 0 0 1 .084-.034h1.154a.153.153 0 0 1 .138.079l1.479 2.3c.02.04.039.04.06 0l1.488-2.3a.154.154 0 0 1 .137-.077Z" fill="#fff"/></g><g data-name="グループ 109"><path data-name="パス 288" d="M119.418 29.496a.117.117 0 0 1-.034-.084v-6.665a.117.117 0 0 1 .034-.084.117.117 0 0 1 .084-.034h1.154a.117.117 0 0 1 .084.034.117.117 0 0 1 .034.084v6.665a.117.117 0 0 1-.034.084.115.115 0 0 1-.084.034h-1.154a.115.115 0 0 1-.084-.034Z" fill="#fff"/></g><g data-name="グループ 110"><path data-name="パス 289" d="M128.034 22.663a.116.116 0 0 1 .084-.034h1.154a.117.117 0 0 1 .084.034.117.117 0 0 1 .034.084v6.665a.117.117 0 0 1-.034.084.115.115 0 0 1-.084.034h-1.114a.14.14 0 0 1-.138-.079l-2.553-4.219c-.013-.02-.027-.029-.04-.025s-.02.018-.02.045l.02 4.16a.117.117 0 0 1-.034.084.115.115 0 0 1-.084.034h-1.155a.114.114 0 0 1-.084-.034.115.115 0 0 1-.034-.084v-6.665a.115.115 0 0 1 .034-.084.116.116 0 0 1 .084-.034h1.114a.14.14 0 0 1 .138.079l2.544 4.2c.013.019.026.028.039.024s.02-.018.02-.044l-.01-4.141a.115.115 0 0 1 .035-.084Z" fill="#fff"/></g><g data-name="グループ 111"><path data-name="パス 290" d="M133.665 29.303a2.211 2.211 0 0 1-.9-.853 2.462 2.462 0 0 1-.321-1.267v-2.208a2.489 2.489 0 0 1 .321-1.272 2.171 2.171 0 0 1 .9-.853 2.88 2.88 0 0 1 1.341-.3 2.859 2.859 0 0 1 1.326.3 2.243 2.243 0 0 1 .9.8 2.074 2.074 0 0 1 .321 1.129v.069a.117.117 0 0 1-.034.084.115.115 0 0 1-.084.034h-1.154a.115.115 0 0 1-.084-.034.115.115 0 0 1-.034-.084v-.03a1.031 1.031 0 0 0-.316-.764 1.143 1.143 0 0 0-.838-.311 1.133 1.133 0 0 0-.852.33 1.185 1.185 0 0 0-.321.863v2.287a1.138 1.138 0 0 0 .345.863 1.216 1.216 0 0 0 .878.33 1.189 1.189 0 0 0 .818-.271.956.956 0 0 0 .306-.754v-.444a.044.044 0 0 0-.049-.049h-1.1a.115.115 0 0 1-.084-.034.116.116 0 0 1-.034-.084v-.907a.116.116 0 0 1 .034-.084.114.114 0 0 1 .084-.034h2.406a.114.114 0 0 1 .084.034.116.116 0 0 1 .034.084v1.3a2.577 2.577 0 0 1-.316 1.3 2.084 2.084 0 0 1-.892.843 2.927 2.927 0 0 1-1.336.291 2.839 2.839 0 0 1-1.349-.304Z" fill="#fff"/></g></g></g></svg>