<svg xmlns="http://www.w3.org/2000/svg" width="27.847" height="23.447"><path data-name="パス 11" d="M22.601 6.96a.536.536 0 0 0 .4-.087l2.064-1.426a.538.538 0 0 0-.611-.885L22.39 5.988a.538.538 0 0 0 .209.971Zm1.671 4.08a.538.538 0 0 1 .509-.565l2.5-.129a.538.538 0 0 1 .055 1.074l-2.5.129a.537.537 0 0 1-.565-.509Zm-5.329-7.713a.538.538 0 0 1-.277-.708l1.007-2.3a.538.538 0 0 1 .985.432l-1.007 2.3a.537.537 0 0 1-.708.276Zm-6.479-.093a2.027 2.027 0 0 0-.508.508l-.009.013-9.22 13.25-2.01.505-.042.011a.821.821 0 0 0-.249.115c-.747.516-.476 2.2.6 3.763s2.56 2.411 3.307 1.9a.826.826 0 0 0 .207-.207v-.005l1.195-1.717 15.61-3.925.1-.026a2.018 2.018 0 0 0 .613-.284c1.833-1.267 1.17-5.4-1.482-9.242s-6.282-5.925-8.116-4.658Zm.617.892c.509-.351 1.48-.179 2.6.462a14.622 14.622 0 0 1 6.258 9.058c.2 1.272.022 2.241-.487 2.593s-1.48.179-2.6-.462a14.622 14.622 0 0 1-6.258-9.058c-.208-1.271-.026-2.241.483-2.592Z" fill="#fff"/></svg>