<svg xmlns="http://www.w3.org/2000/svg" width="180.279" height="38.003"><defs><clipPath id="a"><path data-name="長方形 242" fill="none" d="M0 0h48.367v38.003H0z"/></clipPath></defs><g data-name="グループ 93"><g data-name="グループ 94"><g data-name="グループ 93" clip-path="url(#a)"><path data-name="パス 271" d="m24.252 14.81-5.059 11.067h10.548Z" fill="#38b6ff" fill-rule="evenodd"/><path data-name="パス 272" d="M23.937 0 10.764 28.82H7.987L21.361 1.264l-3.611-.021L.001 37.834l3.63-.039 2.772-5.712h33.445L23.937 0Zm.117 7.565L34.595 28.82H14.339Z" fill="#303030" fill-rule="evenodd"/><path data-name="パス 273" d="m27.068 1.383 17.648 36.413 3.65.019L30.598 1.243Z" fill="#38b6ff" fill-rule="evenodd"/><path data-name="長方形 241" fill="#303030" d="M8.539 34.739h31.71v3.264H8.539z"/></g></g><g data-name="グループ 112"><g data-name="グループ 95"><path data-name="パス 274" d="m69.985 19.777-.648-2.225c-.033-.066-.075-.1-.125-.1H63.5c-.05 0-.092.034-.125.1l-.651 2.229a.33.33 0 0 1-.351.25h-3.831a.279.279 0 0 1-.225-.087.273.273 0 0 1-.025-.263L63.65 2.752a.315.315 0 0 1 .325-.25h4.733a.314.314 0 0 1 .325.25l5.384 16.927a.28.28 0 0 1 .025.125c0 .151-.092.225-.275.225h-3.83a.33.33 0 0 1-.352-.252Zm-5.509-5.534h3.731c.1 0 .134-.05.1-.15l-1.9-6.435q-.025-.1-.075-.088a.119.119 0 0 0-.075.088l-1.88 6.435c-.018.1.016.15.099.15Z" fill="#303030"/></g><g data-name="グループ 96"><path data-name="パス 275" d="M82.942 14.456a.292.292 0 0 1-.088-.214v-2.955a.291.291 0 0 1 .088-.212.291.291 0 0 1 .213-.087h8.514a.293.293 0 0 1 .213.087.291.291 0 0 1 .088.212v2.955a.292.292 0 0 1-.088.214.293.293 0 0 1-.213.087h-8.514a.291.291 0 0 1-.213-.087Z" fill="#303030"/></g><g data-name="グループ 97"><path data-name="パス 276" d="M113.89 2.586a.292.292 0 0 1 .087.214v2.979a.291.291 0 0 1-.087.213.289.289 0 0 1-.213.087h-4.382a.111.111 0 0 0-.125.125v13.522a.29.29 0 0 1-.088.213.287.287 0 0 1-.212.087h-3.556a.287.287 0 0 1-.213-.087.289.289 0 0 1-.087-.213V6.205a.111.111 0 0 0-.126-.125h-4.231a.287.287 0 0 1-.213-.087.291.291 0 0 1-.087-.213V2.801a.292.292 0 0 1 .087-.214.291.291 0 0 1 .213-.087h13.021a.293.293 0 0 1 .212.086Z" fill="#303030"/></g><g data-name="グループ 98"><path data-name="パス 277" d="M135.323 5.967a.289.289 0 0 1-.213.087h-7.862a.111.111 0 0 0-.126.125v3.08a.111.111 0 0 0 .126.125h5.033a.288.288 0 0 1 .212.088.288.288 0 0 1 .088.212v2.93a.289.289 0 0 1-.088.212.289.289 0 0 1-.212.088h-5.033a.111.111 0 0 0-.126.125v3.305a.111.111 0 0 0 .126.125h7.862a.291.291 0 0 1 .213.087.291.291 0 0 1 .088.213v2.955a.29.29 0 0 1-.088.213.287.287 0 0 1-.213.087h-11.844a.285.285 0 0 1-.212-.087.288.288 0 0 1-.088-.213V2.8a.291.291 0 0 1 .088-.214.289.289 0 0 1 .212-.087h11.844a.291.291 0 0 1 .213.087.293.293 0 0 1 .088.214v2.952a.29.29 0 0 1-.088.215Z" fill="#303030"/></g><g data-name="グループ 99"><path data-name="パス 278" d="M147.516 19.452a5.659 5.659 0 0 1-2.354-2.2 6.4 6.4 0 0 1-.839-3.305V8.538a6.284 6.284 0 0 1 .839-3.268 5.679 5.679 0 0 1 2.354-2.191 7.611 7.611 0 0 1 3.518-.777 7.943 7.943 0 0 1 3.518.739 5.6 5.6 0 0 1 2.354 2.079 5.7 5.7 0 0 1 .839 3.092.251.251 0 0 1-.088.2.318.318 0 0 1-.212.075l-3.553.225q-.3 0-.3-.276a2.54 2.54 0 0 0-.7-1.878 2.508 2.508 0 0 0-1.853-.7 2.481 2.481 0 0 0-1.853.714 2.548 2.548 0 0 0-.7 1.866v5.684a2.5 2.5 0 0 0 .7 1.853 2.5 2.5 0 0 0 1.853.7 2.508 2.508 0 0 0 1.853-.7 2.505 2.505 0 0 0 .7-1.853c0-.183.1-.275.3-.275l3.556.175a.318.318 0 0 1 .212.075.225.225 0 0 1 .088.176 5.81 5.81 0 0 1-.839 3.13 5.572 5.572 0 0 1-2.354 2.09 7.927 7.927 0 0 1-3.518.739 7.61 7.61 0 0 1-3.521-.78Z" fill="#303030"/></g><g data-name="グループ 100"><path data-name="パス 279" d="M176.21 2.586a.289.289 0 0 1 .212-.087h3.555a.291.291 0 0 1 .213.087.291.291 0 0 1 .088.214v16.927a.288.288 0 0 1-.088.213.287.287 0 0 1-.213.087h-3.556a.285.285 0 0 1-.212-.087.288.288 0 0 1-.088-.213v-6.661a.111.111 0 0 0-.125-.125h-4.682a.111.111 0 0 0-.125.125v6.661a.29.29 0 0 1-.088.213.288.288 0 0 1-.213.087h-3.556a.285.285 0 0 1-.212-.087.288.288 0 0 1-.088-.213V2.8a.291.291 0 0 1 .088-.214.289.289 0 0 1 .212-.087h3.556a.292.292 0 0 1 .213.087.293.293 0 0 1 .088.214v6.46a.11.11 0 0 0 .125.125h4.682a.11.11 0 0 0 .125-.125V2.8a.291.291 0 0 1 .089-.214Z" fill="#303030"/></g><g data-name="グループ 101"><path data-name="パス 280" d="M70.839 28.85a2.368 2.368 0 0 1 .963.951 2.86 2.86 0 0 1 .342 1.411 2.65 2.65 0 0 1-.354 1.379 2.414 2.414 0 0 1-.995.926 3.173 3.173 0 0 1-1.473.329h-1.764a.055.055 0 0 0-.062.062v3.17a.148.148 0 0 1-.043.106.146.146 0 0 1-.106.043h-1.455a.143.143 0 0 1-.105-.043.144.144 0 0 1-.044-.106v-8.414a.142.142 0 0 1 .044-.106.143.143 0 0 1 .105-.043h3.5a2.988 2.988 0 0 1 1.447.335Zm-.783 3.262a1.133 1.133 0 0 0 .348-.863 1.171 1.171 0 0 0-.348-.883 1.271 1.271 0 0 0-.92-.335h-1.578a.055.055 0 0 0-.062.062v2.287a.055.055 0 0 0 .062.062h1.578a1.285 1.285 0 0 0 .92-.329Z" fill="#38b6ff"/></g><g data-name="グループ 102"><path data-name="パス 281" d="m80.417 37.117-1.554-3.444a.08.08 0 0 0-.075-.05h-1.155a.055.055 0 0 0-.062.062v3.394a.145.145 0 0 1-.043.106.144.144 0 0 1-.106.043h-1.455a.144.144 0 0 1-.106-.043.143.143 0 0 1-.043-.106v-8.4a.143.143 0 0 1 .043-.106.146.146 0 0 1 .106-.043h3.554a2.919 2.919 0 0 1 1.4.323 2.26 2.26 0 0 1 .932.92 2.805 2.805 0 0 1 .33 1.38 2.458 2.458 0 0 1-.423 1.448 2.246 2.246 0 0 1-1.181.851.059.059 0 0 0-.037.087l1.69 3.517a.187.187 0 0 1 .024.075c0 .067-.045.1-.136.1h-1.529a.176.176 0 0 1-.174-.114Zm-2.847-7.028v2.13a.055.055 0 0 0 .062.062h1.628a1.19 1.19 0 0 0 .851-.31 1.06 1.06 0 0 0 .329-.808 1.082 1.082 0 0 0-.329-.814 1.175 1.175 0 0 0-.851-.317h-1.627a.055.055 0 0 0-.063.057Z" fill="#38b6ff"/></g><g data-name="グループ 103"><path data-name="パス 282" d="M87.428 36.968a2.857 2.857 0 0 1-1.15-1.113 3.252 3.252 0 0 1-.409-1.647v-2.66a3.2 3.2 0 0 1 .409-1.628 2.833 2.833 0 0 1 1.15-1.1 3.6 3.6 0 0 1 1.709-.392 3.62 3.62 0 0 1 1.721.392 2.826 2.826 0 0 1 1.15 1.1 3.191 3.191 0 0 1 .414 1.628v2.661a3.28 3.28 0 0 1-.411 1.653 2.8 2.8 0 0 1-1.15 1.113 3.627 3.627 0 0 1-1.721.391 3.553 3.553 0 0 1-1.712-.398Zm2.816-1.541a1.588 1.588 0 0 0 .422-1.156v-2.735a1.626 1.626 0 0 0-.417-1.163 1.458 1.458 0 0 0-1.112-.441 1.443 1.443 0 0 0-1.1.441 1.626 1.626 0 0 0-.415 1.163v2.732a1.6 1.6 0 0 0 .416 1.156 1.451 1.451 0 0 0 1.1.435 1.473 1.473 0 0 0 1.106-.433Z" fill="#38b6ff"/></g><g data-name="グループ 104"><path data-name="パス 283" d="M97.722 36.943a2.787 2.787 0 0 1-1.137-1.075 3.1 3.1 0 0 1-.4-1.6v-2.781a3.132 3.132 0 0 1 .4-1.6 2.737 2.737 0 0 1 1.137-1.075 3.632 3.632 0 0 1 1.69-.379 3.6 3.6 0 0 1 1.672.373 2.83 2.83 0 0 1 1.131 1.013 2.618 2.618 0 0 1 .4 1.423v.087a.144.144 0 0 1-.044.106.143.143 0 0 1-.105.043h-1.454a.143.143 0 0 1-.106-.043.144.144 0 0 1-.044-.106v-.038a1.3 1.3 0 0 0-.4-.963 1.442 1.442 0 0 0-1.056-.392 1.432 1.432 0 0 0-1.075.416 1.5 1.5 0 0 0-.4 1.087v2.884a1.434 1.434 0 0 0 .435 1.087 1.533 1.533 0 0 0 1.106.417 1.5 1.5 0 0 0 1.032-.342 1.207 1.207 0 0 0 .385-.951v-.566a.055.055 0 0 0-.062-.062h-1.39a.143.143 0 0 1-.106-.043.142.142 0 0 1-.043-.106v-1.139a.141.141 0 0 1 .043-.106.141.141 0 0 1 .106-.044h3.033a.141.141 0 0 1 .105.043.142.142 0 0 1 .044.106v1.64a3.248 3.248 0 0 1-.4 1.64 2.632 2.632 0 0 1-1.122 1.064 3.689 3.689 0 0 1-1.684.367 3.58 3.58 0 0 1-1.691-.385Z" fill="#38b6ff"/></g><g data-name="グループ 105"><path data-name="パス 284" d="m111.09 37.117-1.554-3.443a.08.08 0 0 0-.075-.05h-1.156a.055.055 0 0 0-.062.062v3.393a.145.145 0 0 1-.043.106.144.144 0 0 1-.106.043h-1.454a.144.144 0 0 1-.106-.043.143.143 0 0 1-.043-.106v-8.4a.143.143 0 0 1 .043-.106.146.146 0 0 1 .106-.043h3.554a2.919 2.919 0 0 1 1.4.323 2.26 2.26 0 0 1 .932.92 2.805 2.805 0 0 1 .33 1.38 2.458 2.458 0 0 1-.423 1.448 2.244 2.244 0 0 1-1.181.851.059.059 0 0 0-.037.087l1.69 3.517a.19.19 0 0 1 .025.075c0 .067-.046.1-.137.1h-1.529a.176.176 0 0 1-.174-.114Zm-2.847-7.028v2.13a.055.055 0 0 0 .062.062h1.628a1.189 1.189 0 0 0 .851-.31 1.06 1.06 0 0 0 .329-.808 1.082 1.082 0 0 0-.329-.814 1.175 1.175 0 0 0-.851-.317h-1.628a.055.055 0 0 0-.062.057Z" fill="#38b6ff"/></g><g data-name="グループ 106"><path data-name="パス 285" d="m122.085 37.104-.373-1.215c-.017-.033-.037-.05-.062-.05h-3.057c-.025 0-.046.016-.062.05l-.36 1.218a.156.156 0 0 1-.162.125h-1.579a.14.14 0 0 1-.112-.043.138.138 0 0 1-.012-.131l2.684-8.4a.156.156 0 0 1 .162-.125h1.951a.155.155 0 0 1 .161.125l2.685 8.4a.139.139 0 0 1 .013.062c0 .075-.046.112-.137.112h-1.575a.157.157 0 0 1-.165-.128Zm-3.057-2.623h2.187c.05 0 .067-.024.05-.074l-1.115-3.691c-.008-.033-.021-.047-.037-.043a.058.058 0 0 0-.037.043l-1.094 3.691c-.012.05.004.074.046.074Z" fill="#38b6ff"/></g><g data-name="グループ 107"><path data-name="パス 286" d="M133.416 28.528h1.453a.145.145 0 0 1 .106.043.144.144 0 0 1 .045.106v8.4a.144.144 0 0 1-.045.106.143.143 0 0 1-.106.043h-1.453a.143.143 0 0 1-.106-.043.143.143 0 0 1-.043-.106v-5.478c0-.034-.008-.051-.026-.051s-.033.013-.05.038l-1.317 2.063a.193.193 0 0 1-.173.1h-.734a.193.193 0 0 1-.174-.1l-1.317-2.06c-.016-.025-.033-.036-.05-.031s-.024.023-.024.056v5.465a.148.148 0 0 1-.043.106.145.145 0 0 1-.106.043h-1.459a.145.145 0 0 1-.1-.039.145.145 0 0 1-.043-.106v-8.4a.145.145 0 0 1 .043-.106.148.148 0 0 1 .106-.043h1.455a.194.194 0 0 1 .174.1l1.865 2.889c.025.05.049.05.075 0l1.876-2.9a.2.2 0 0 1 .171-.095Z" fill="#38b6ff"/></g><g data-name="グループ 108"><path data-name="パス 287" d="M144.845 28.528h1.454a.147.147 0 0 1 .106.043.144.144 0 0 1 .044.106v8.4a.144.144 0 0 1-.044.106.144.144 0 0 1-.106.043h-1.454a.144.144 0 0 1-.106-.043.143.143 0 0 1-.043-.106v-5.478c0-.034-.008-.051-.025-.051s-.033.013-.05.038l-1.318 2.063a.193.193 0 0 1-.174.1h-.734a.194.194 0 0 1-.174-.1l-1.316-2.06c-.016-.025-.033-.036-.05-.031s-.024.023-.024.056v5.465a.145.145 0 0 1-.043.106.143.143 0 0 1-.106.043h-1.455a.145.145 0 0 1-.106-.043.147.147 0 0 1-.043-.106v-8.4a.147.147 0 0 1 .043-.106.148.148 0 0 1 .106-.043h1.455a.193.193 0 0 1 .174.1l1.865 2.9c.025.05.05.05.075 0l1.876-2.9a.194.194 0 0 1 .173-.102Z" fill="#38b6ff"/></g><g data-name="グループ 109"><path data-name="パス 288" d="M150.55 37.189a.148.148 0 0 1-.043-.106v-8.4a.148.148 0 0 1 .043-.106.148.148 0 0 1 .106-.043h1.455a.148.148 0 0 1 .106.043.148.148 0 0 1 .043.106v8.4a.148.148 0 0 1-.043.106.145.145 0 0 1-.106.043h-1.452a.145.145 0 0 1-.109-.043Z" fill="#38b6ff"/></g><g data-name="グループ 110"><path data-name="パス 289" d="M161.412 28.571a.147.147 0 0 1 .106-.043h1.455a.148.148 0 0 1 .106.043.148.148 0 0 1 .043.106v8.4a.148.148 0 0 1-.043.106.145.145 0 0 1-.106.043h-1.4a.177.177 0 0 1-.174-.1l-3.219-5.319c-.017-.026-.034-.036-.05-.032s-.025.023-.025.056l.025 5.245a.147.147 0 0 1-.043.106.145.145 0 0 1-.106.043h-1.455a.144.144 0 0 1-.106-.043.145.145 0 0 1-.043-.106v-8.4a.145.145 0 0 1 .043-.106.146.146 0 0 1 .106-.043h1.4a.176.176 0 0 1 .174.1l3.207 5.3c.017.024.033.035.05.031s.025-.022.025-.056l-.012-5.22a.145.145 0 0 1 .042-.111Z" fill="#38b6ff"/></g><g data-name="グループ 111"><path data-name="パス 290" d="M168.51 36.943a2.787 2.787 0 0 1-1.137-1.075 3.1 3.1 0 0 1-.4-1.6v-2.781a3.138 3.138 0 0 1 .4-1.6 2.737 2.737 0 0 1 1.137-1.075 3.631 3.631 0 0 1 1.69-.379 3.6 3.6 0 0 1 1.672.373 2.828 2.828 0 0 1 1.131 1.013 2.614 2.614 0 0 1 .4 1.423v.087a.148.148 0 0 1-.043.106.145.145 0 0 1-.106.043h-1.455a.145.145 0 0 1-.106-.043.145.145 0 0 1-.043-.106v-.038a1.3 1.3 0 0 0-.4-.963 1.441 1.441 0 0 0-1.056-.392 1.428 1.428 0 0 0-1.075.416 1.494 1.494 0 0 0-.4 1.087v2.884a1.434 1.434 0 0 0 .435 1.087 1.533 1.533 0 0 0 1.106.417 1.5 1.5 0 0 0 1.031-.342 1.205 1.205 0 0 0 .385-.951v-.566a.055.055 0 0 0-.062-.062h-1.387a.145.145 0 0 1-.106-.043.147.147 0 0 1-.043-.106v-1.139a.146.146 0 0 1 .043-.106.143.143 0 0 1 .106-.044h3.033a.143.143 0 0 1 .106.043.146.146 0 0 1 .043.106v1.64a3.249 3.249 0 0 1-.4 1.64 2.627 2.627 0 0 1-1.124 1.063 3.69 3.69 0 0 1-1.684.367 3.579 3.579 0 0 1-1.691-.384Z" fill="#38b6ff"/></g></g></g></svg>