<svg xmlns="http://www.w3.org/2000/svg" width="98.827" height="34.935"><defs><clipPath id="a"><path data-name="長方形 161" fill="none" d="M0 0h30.655v34.935H0z"/></clipPath></defs><text transform="translate(69.827 22.967)" fill="#2132df" font-size="13" font-family="Montserrat-Bold, Montserrat" font-weight="700" letter-spacing=".12em"><tspan x="-28.814" y="0">S-GATE</tspan></text><g data-name="グループ 61"><g data-name="グループ 60" transform="translate(0 -.001)" clip-path="url(#a)"><path data-name="パス 160" d="M25.264 11.734a.692.692 0 0 0-.314-.312l-2.427-1.4a.428.428 0 0 0-.108-.043h-.037a.429.429 0 0 0-.075-.009.427.427 0 0 0-.2.056l-5.462 3.15v-.01l-.441.255a1.72 1.72 0 0 1-1.717 0l-2.388-1.376a.429.429 0 0 1 0-.743l2.388-1.376a1.718 1.718 0 0 1 1.717 0l.575.331a.43.43 0 0 0 .429 0l2.224-1.282a.428.428 0 0 0 0-.742l-3.227-1.861a1.72 1.72 0 0 0-1.717 0l-7.906 4.559a.857.857 0 0 0 0 1.485l7.906 4.559a1.72 1.72 0 0 0 1.717 0l6.112-3.524v8.028l-1.964 1.136-4.148 2.4a1.764 1.764 0 0 1-.418.172 1.724 1.724 0 0 1-1.3-.172L8.8 21.738a.858.858 0 0 1-.429-.743v-4.69a.427.427 0 0 0-.215-.371l-2.223-1.283a.429.429 0 0 0-.644.372v7.739a.859.859 0 0 0 .429.743l8.765 5.054a1.724 1.724 0 0 0 .847.228h.006c.042 0 .084 0 .126-.007s.065 0 .1-.006l.132-.025c.043-.008.06-.011.089-.018a1.354 1.354 0 0 0 .139-.047c.026-.01.051-.016.075-.025a1.651 1.651 0 0 0 .206-.1l7.562-4.36 1.2-.679a.857.857 0 0 0 .435-.745V12.163a.859.859 0 0 0-.116-.429" fill="#2132df"/><path data-name="パス 161" d="M16.165 3.807a1.651 1.651 0 0 0-1.674 0L3.93 9.897a1.71 1.71 0 0 0-.856 1.481v12.18a1.707 1.707 0 0 0 .856 1.48l10.561 6.089a1.69 1.69 0 0 0 1.7 0l10.515-6.063a1.709 1.709 0 0 0 .856-1.481v-3.521a.426.426 0 0 1 .213-.371l2.239-1.29a.428.428 0 0 1 .642.371v6.555a1.714 1.714 0 0 1-.2.8 1.175 1.175 0 0 1-.459.546l-.018.014a14.727 14.727 0 0 1-1.864 1.106L16.19 34.669a1.729 1.729 0 0 1-.879.228h-.013a1.709 1.709 0 0 1-.807-.227L.856 26.807A1.709 1.709 0 0 1 0 25.326V9.607a1.747 1.747 0 0 1 .156-.791 1.571 1.571 0 0 1 .522-.612c.128-.086.355-.2.568-.325L14.452.26a1.794 1.794 0 0 1 1.751 0L28.39 7.286a.666.666 0 0 1 .073.057l.154.088a12.318 12.318 0 0 1 1.415.821l.029.022.014.01c.012.01.02.021.032.031a1.493 1.493 0 0 1 .324.377l.006.007a1.527 1.527 0 0 1 .218.786v5.757a.427.427 0 0 1-.214.371l-2.239 1.294a.432.432 0 0 1-.427 0 .427.427 0 0 1-.214-.371v-5.195a1.71 1.71 0 0 0-.857-1.482L16.165 3.807Z" fill="#38b6ff"/></g></g></svg>